<svg xmlns="http://www.w3.org/2000/svg" width="250" height="250" fill="none"><g clip-path="url(#a)"><path fill="url(#b)" d="M125 229.167c57.53 0 104.167-46.637 104.167-104.167S182.53 20.833 125 20.833 20.833 67.47 20.833 125 67.47 229.167 125 229.167Z"/><g filter="url(#c)"><path fill="url(#d)" d="M131.341 201.087c38.52 0 69.746-31.226 69.746-69.746 0-38.52-31.226-69.747-69.746-69.747-38.52 0-69.747 31.227-69.747 69.747 0 38.52 31.227 69.746 69.747 69.746Z"/></g><path fill="#fff" fill-rule="evenodd" d="M56.247 82.047a3.156 3.156 0 1 0 0-6.31 3.156 3.156 0 0 0 0 6.31Zm0 2.367a5.522 5.522 0 1 0 0-11.044 5.522 5.522 0 0 0 0 11.044ZM46.283 179.873a3.156 3.156 0 1 0 0-6.312 3.156 3.156 0 0 0 0 6.312Zm0 2.367a5.523 5.523 0 1 0-.001-11.046 5.523 5.523 0 0 0 .001 11.046ZM193.022 46.721a3.156 3.156 0 1 0 0-6.313 3.156 3.156 0 0 0 0 6.313Zm0 2.367a5.522 5.522 0 1 0 0-11.044 5.522 5.522 0 0 0 0 11.044Z" clip-rule="evenodd"/><path fill="#fff" d="M59.23 38.214c.233-.961 1.6-.961 1.833 0l.78 3.236a.942.942 0 0 0 .696.695l3.236.781c.961.232.961 1.6 0 1.832l-3.236.781a.942.942 0 0 0-.695.695l-.781 3.236c-.233.962-1.6.962-1.832 0l-.781-3.236a.942.942 0 0 0-.695-.695l-3.236-.78c-.962-.233-.962-1.6 0-1.833l3.236-.78a.943.943 0 0 0 .695-.696l.78-3.236Z"/><path fill="url(#e)" d="M204.976 71.188c.254-1.054 1.753-1.054 2.008 0l.857 3.547c.09.377.385.67.76.762l3.548.856c1.054.254 1.054 1.753 0 2.008l-3.548.856c-.375.091-.67.385-.76.762l-.857 3.547c-.255 1.054-1.754 1.054-2.008 0l-.856-3.547a1.033 1.033 0 0 0-.762-.762l-3.547-.856c-1.054-.255-1.054-1.754 0-2.008l3.547-.856c.377-.091.671-.385.762-.762l.856-3.547Z"/><path fill="url(#f)" d="M49.847 200.396a1.578 1.578 0 0 1 1.724 2.121l-2.925 7.658a1.577 1.577 0 0 1-2.699.432l-5.17-6.362a1.577 1.577 0 0 1 .975-2.552l8.095-1.297Z"/><path fill="url(#g)" d="M191.103 182.977a1.578 1.578 0 0 1 1.956-1.909l7.893 2.218c1.168.329 1.544 1.8.675 2.648l-5.867 5.726a1.577 1.577 0 0 1-2.631-.739l-2.026-7.944Z"/><g filter="url(#h)"><path fill="url(#i)" d="M180.277 205.132c0 5.589-26.512 10.119-59.215 10.119-32.702 0-59.213-4.53-59.213-10.119 0-5.589 26.51-10.119 59.213-10.119s59.215 4.53 59.215 10.119Z"/></g><g filter="url(#j)"><path fill="url(#k)" d="m122.215 59.865-38.568 6.8a5.697 5.697 0 0 0-4.62 6.6l9.72 55.126a5.696 5.696 0 0 0 6.599 4.62l38.567-6.8a5.697 5.697 0 0 0 4.622-6.599l-9.721-55.126a5.697 5.697 0 0 0-6.599-4.621Z"/></g><path fill="url(#l)" d="m122.773 88.202-29.96 5.283a1.855 1.855 0 0 0-1.505 2.149l.001.006a1.855 1.855 0 0 0 2.15 1.504l29.96-5.282a1.855 1.855 0 0 0 1.504-2.15l-.001-.005a1.855 1.855 0 0 0-2.149-1.505Z"/><path fill="url(#m)" d="m127.33 113.947-29.702 5.238c-1 .176-1.671 1.111-1.499 2.088l.001.007c.172.977 1.123 1.626 2.123 1.45l29.702-5.238c1.001-.176 1.672-1.111 1.499-2.088v-.007c-.173-.977-1.124-1.626-2.124-1.45Z"/><path fill="url(#n)" d="m124.956 100.477-29.703 5.237c-1 .177-1.671 1.112-1.499 2.089l.001.006c.172.978 1.123 1.627 2.123 1.45l29.703-5.237c1-.176 1.671-1.112 1.499-2.089l-.001-.006c-.173-.977-1.123-1.626-2.123-1.45Z"/><path fill="#A259FF" d="m100.406 72.489-8.755 1.543a3.566 3.566 0 0 0-2.893 4.13l.429 2.43a3.566 3.566 0 0 0 4.13 2.893l8.756-1.544a3.566 3.566 0 0 0 2.892-4.13l-.429-2.43a3.565 3.565 0 0 0-4.13-2.892Z"/><g filter="url(#o)"><path fill="url(#p)" d="M168.178 75.066H117.15a4.306 4.306 0 0 0-4.305 4.306v23.984a4.305 4.305 0 0 0 4.305 4.305h51.028a4.305 4.305 0 0 0 4.305-4.305V79.372a4.306 4.306 0 0 0-4.305-4.306Z"/></g><path fill="#fff" d="M125.439 96.31a4.95 4.95 0 1 0 0-9.9 4.95 4.95 0 0 0 0 9.9ZM143.128 96.31a4.95 4.95 0 1 0 0-9.9 4.95 4.95 0 0 0 0 9.9ZM160.817 96.31a4.949 4.949 0 0 0 4.949-4.95 4.949 4.949 0 1 0-9.899 0 4.95 4.95 0 0 0 4.95 4.95Z"/><path fill="url(#q)" fill-rule="evenodd" d="M116.139 161.244a4.46 4.46 0 0 1 5.167-3.618l25.489 4.494c3.482.615 6.63 2.231 8.861 4.568 2.23 2.335 3.741 5.655 3.093 9.331-.648 3.676-3.203 6.279-6.097 7.712-2.895 1.434-6.407 1.879-9.891 1.265l-60.563-10.679a4.461 4.461 0 0 1 1.549-8.786l60.564 10.679c1.806.318 3.361.032 4.382-.474 1.022-.506 1.232-1.048 1.27-1.266.038-.217.027-.796-.759-1.62-.786-.824-2.15-1.625-3.958-1.943l-25.594-5.403c-2.425-.428-3.942-1.834-3.513-4.26Z" clip-rule="evenodd"/><path fill="url(#r)" fill-rule="evenodd" d="M165.37 115.83a5.017 5.017 0 0 1 5.418-2.823l19.982 3.524a5.016 5.016 0 1 1-1.742 9.88l-16.189-2.855-9.564 20.528a5.017 5.017 0 1 1-9.094-4.236l11.189-24.018Z" clip-rule="evenodd"/><path fill="url(#s)" d="M94.148 192.088c5.911 1.043 11.548-2.905 12.59-8.815 1.042-5.911-2.905-11.547-8.815-12.59-5.911-1.042-11.548 2.905-12.59 8.816-1.042 5.911 2.905 11.547 8.815 12.589Z"/><path fill="url(#t)" d="m160.761 124.9-73.753-13.005c-5.529-.974-10.44 2.995-10.054 8.121l.92 29.914c.28 3.703 3.302 6.827 7.295 7.53l64.289 15.675 17.989-37.149c4.145-7.524-1.144-10.109-6.686-11.086Z"/><path fill="url(#u)" d="M94.789 186.727a5.461 5.461 0 0 0 1.896-10.754 5.46 5.46 0 1 0-1.896 10.754Z"/><mask id="w" width="93" height="63" x="76" y="111" maskUnits="userSpaceOnUse" style="mask-type:alpha"><path fill="url(#v)" d="m160.761 124.9-73.754-13.005c-5.528-.974-10.439 2.995-10.054 8.121l.921 29.914c.28 3.703 3.302 6.827 7.295 7.53l64.289 15.675 17.989-37.149c2.117-4.699-1.144-10.109-6.686-11.086Z"/></mask><g mask="url(#w)"><path fill="#A259FF" d="M125.076 144.625a3.136 3.136 0 0 1 3.648-2.499 3.105 3.105 0 0 1 2.488 3.633l-4.222 22.331a3.135 3.135 0 0 1-3.647 2.498 3.104 3.104 0 0 1-2.489-3.632l4.222-22.331ZM180.173 130.102a2.613 2.613 0 0 1 2.128 3.008l-.174 1.025a2.589 2.589 0 0 1-2.997 2.119L76.007 118.343a2.613 2.613 0 0 1-2.127-3.008l.174-1.025a2.588 2.588 0 0 1 2.996-2.119l103.123 17.911ZM142.431 147.761a3.134 3.134 0 0 1 3.647-2.498 3.103 3.103 0 0 1 2.488 3.633l-4.221 22.331a3.135 3.135 0 0 1-3.648 2.498 3.105 3.105 0 0 1-2.488-3.632l4.222-22.332ZM107.724 141.488a3.136 3.136 0 0 1 3.646-2.499 3.106 3.106 0 0 1 2.489 3.634l-4.221 22.33a3.136 3.136 0 0 1-3.648 2.499 3.105 3.105 0 0 1-2.488-3.633l4.222-22.331ZM90.17 138.394a3.136 3.136 0 0 1 3.648-2.499 3.105 3.105 0 0 1 2.488 3.633l-4.221 22.331a3.136 3.136 0 0 1-3.648 2.499 3.105 3.105 0 0 1-2.488-3.633l4.222-22.331Z"/><path fill="url(#x)" d="M74.928 112.21a3.379 3.379 0 0 1 3.916-2.742l90.126 15.891a3.38 3.38 0 0 1-1.174 6.658L77.67 116.124a3.379 3.379 0 0 1-2.742-3.914Z"/></g></g><defs><linearGradient id="m" x1="122.857" x2="119.697" y1="117.358" y2="107.886" gradientUnits="userSpaceOnUse"><stop stop-color="#A259FF"/><stop offset=".667" stop-color="#fff"/></linearGradient><linearGradient id="l" x1="118.271" x2="114.978" y1="91.702" y2="81.942" gradientUnits="userSpaceOnUse"><stop stop-color="#A259FF"/><stop offset=".667" stop-color="#fff"/></linearGradient><linearGradient id="d" x1="161.232" x2="114.715" y1="187.802" y2="182.499" gradientUnits="userSpaceOnUse"><stop stop-color="#A259FF" stop-opacity="0"/><stop offset="1" stop-color="#FF6250"/></linearGradient><linearGradient id="e" x1="208.956" x2="222.298" y1="73.49" y2="83.97" gradientUnits="userSpaceOnUse"><stop stop-color="#A259FF"/><stop offset="1" stop-color="#377DF7"/></linearGradient><linearGradient id="f" x1="51.084" x2="50.638" y1="204.28" y2="217.556" gradientUnits="userSpaceOnUse"><stop stop-color="#A259FF"/><stop offset="1" stop-color="#377DF7"/></linearGradient><linearGradient id="g" x1="194.86" x2="208.12" y1="181.393" y2="180.632" gradientUnits="userSpaceOnUse"><stop stop-color="#A259FF"/><stop offset="1" stop-color="#377DF7"/></linearGradient><linearGradient id="x" x1="151.901" x2="153.386" y1="127.272" y2="108.464" gradientUnits="userSpaceOnUse"><stop stop-color="#A259FF"/><stop offset=".667" stop-color="#fff"/></linearGradient><linearGradient id="k" x1="86.098" x2="136.257" y1="66.233" y2="64.687" gradientUnits="userSpaceOnUse"><stop stop-color="#A259FF"/><stop offset="1" stop-color="#3B3B3B"/></linearGradient><linearGradient id="b" x1="49.894" x2="208.898" y1="20.833" y2="53.932" gradientUnits="userSpaceOnUse"><stop stop-color="#A259FF"/><stop offset="1" stop-color="#3B3B3B"/></linearGradient><linearGradient id="n" x1="120.481" x2="117.322" y1="103.887" y2="94.416" gradientUnits="userSpaceOnUse"><stop stop-color="#A259FF"/><stop offset=".667" stop-color="#fff"/></linearGradient><linearGradient id="p" x1="112.845" x2="149.544" y1="114.984" y2="59.906" gradientUnits="userSpaceOnUse"><stop stop-color="#A259FF"/><stop offset="1" stop-color="#FF6250"/></linearGradient><linearGradient id="q" x1="141.925" x2="129.344" y1="178.176" y2="119.127" gradientUnits="userSpaceOnUse"><stop stop-color="#A259FF"/><stop offset=".667" stop-color="#fff"/></linearGradient><linearGradient id="r" x1="183.858" x2="212.899" y1="123.352" y2="157.154" gradientUnits="userSpaceOnUse"><stop stop-color="#A259FF"/><stop offset="1" stop-color="#377DF7"/></linearGradient><linearGradient id="s" x1="101.594" x2="76.77" y1="187.157" y2="161.795" gradientUnits="userSpaceOnUse"><stop stop-color="#A259FF"/><stop offset=".667" stop-color="#fff"/></linearGradient><linearGradient id="t" x1="145.222" x2="95.325" y1="158.179" y2="58.703" gradientUnits="userSpaceOnUse"><stop stop-color="#A259FF"/><stop offset=".667" stop-color="#fff"/></linearGradient><linearGradient id="u" x1="89.564" x2="105.056" y1="183.032" y2="186.017" gradientUnits="userSpaceOnUse"><stop stop-color="#fff"/><stop offset="1" stop-color="#BCF3FF"/></linearGradient><linearGradient id="v" x1="76.305" x2="167.649" y1="121.766" y2="138.999" gradientUnits="userSpaceOnUse"><stop stop-color="#AFF1FF"/><stop offset="1" stop-color="#65C8DE"/></linearGradient><filter id="o" width="65.263" height="36.346" x="112.845" y="75.066" color-interpolation-filters="sRGB" filterUnits="userSpaceOnUse"><feFlood flood-opacity="0" result="BackgroundImageFix"/><feBlend in="SourceGraphic" in2="BackgroundImageFix" result="shape"/><feColorMatrix in="SourceAlpha" result="hardAlpha" values="0 0 0 0 0 0 0 0 0 0 0 0 0 0 0 0 0 0 127 0"/><feOffset dx="5.626" dy="3.751"/><feGaussianBlur stdDeviation="6.095"/><feComposite in2="hardAlpha" k2="-1" k3="1" operator="arithmetic"/><feColorMatrix values="0 0 0 0 0.104618 0 0 0 0 0.465612 0 0 0 0 0.545833 0 0 0 0.09 0"/><feBlend in2="shape" result="effect1_innerShadow_305_7528"/></filter><filter id="c" width="247.493" height="247.493" x="7.594" y="7.594" color-interpolation-filters="sRGB" filterUnits="userSpaceOnUse"><feFlood flood-opacity="0" result="BackgroundImageFix"/><feBlend in="SourceGraphic" in2="BackgroundImageFix" result="shape"/><feGaussianBlur result="effect1_foregroundBlur_305_7528" stdDeviation="27"/></filter><filter id="h" width="159.803" height="61.612" x="41.161" y="174.326" color-interpolation-filters="sRGB" filterUnits="userSpaceOnUse"><feFlood flood-opacity="0" result="BackgroundImageFix"/><feBlend in="SourceGraphic" in2="BackgroundImageFix" result="shape"/><feGaussianBlur result="effect1_foregroundBlur_305_7528" stdDeviation="10.344"/></filter><filter id="j" width="62.068" height="78.885" x="78.939" y="59.777" color-interpolation-filters="sRGB" filterUnits="userSpaceOnUse"><feFlood flood-opacity="0" result="BackgroundImageFix"/><feBlend in="SourceGraphic" in2="BackgroundImageFix" result="shape"/><feColorMatrix in="SourceAlpha" result="hardAlpha" values="0 0 0 0 0 0 0 0 0 0 0 0 0 0 0 0 0 0 127 0"/><feOffset dx="2.385" dy="5.564"/><feGaussianBlur stdDeviation="5.961"/><feComposite in2="hardAlpha" k2="-1" k3="1" operator="arithmetic"/><feColorMatrix values="0 0 0 0 0.104618 0 0 0 0 0.465612 0 0 0 0 0.545833 0 0 0 0.15 0"/><feBlend in2="shape" result="effect1_innerShadow_305_7528"/></filter><radialGradient id="i" cx="0" cy="0" r="1" gradientTransform="matrix(0 10.1188 -59.2142 0 121.062 205.132)" gradientUnits="userSpaceOnUse"><stop stop-color="#2B2B2B"/><stop offset="1" stop-color="#2B2B2B" stop-opacity="0"/></radialGradient><clipPath id="a"><path fill="#fff" d="M0 0h250v250H0z"/></clipPath></defs></svg>