<svg xmlns="http://www.w3.org/2000/svg" width="250" height="250" fill="none"><g clip-path="url(#a)"><path fill="url(#b)" d="M125 229.167c57.53 0 104.167-46.637 104.167-104.167S182.53 20.833 125 20.833 20.833 67.47 20.833 125 67.47 229.167 125 229.167Z"/><g filter="url(#c)"><path fill="url(#d)" d="M125 201.087c42.022 0 76.087-34.065 76.087-76.087 0-42.022-34.065-76.087-76.087-76.087-42.022 0-76.087 34.065-76.087 76.087 0 42.022 34.065 76.087 76.087 76.087Z"/></g><path fill="#fff" fill-rule="evenodd" d="M75.269 46.721a3.156 3.156 0 1 0 0-6.311 3.156 3.156 0 0 0 0 6.311Zm0 2.367a5.522 5.522 0 1 0 0-11.045 5.522 5.522 0 0 0 0 11.045ZM46.283 179.873a3.156 3.156 0 1 0 0-6.312 3.156 3.156 0 0 0 0 6.312Zm0 2.367a5.523 5.523 0 1 0-.001-11.046 5.523 5.523 0 0 0 .001 11.046ZM204.797 91.105a3.156 3.156 0 1 0 0-6.311 3.156 3.156 0 0 0 0 6.311Zm0 2.367a5.523 5.523 0 1 0 0-11.046 5.523 5.523 0 0 0 0 11.046Z" clip-rule="evenodd"/><path fill="#fff" d="M39.303 47.272c.233-.961 1.6-.961 1.832 0l.781 3.236a.943.943 0 0 0 .695.695l3.236.781c.962.233.962 1.6 0 1.832l-3.236.781a.943.943 0 0 0-.695.695l-.78 3.236c-.233.962-1.6.962-1.833 0l-.78-3.236a.942.942 0 0 0-.696-.695l-3.236-.78c-.961-.233-.961-1.6 0-1.833l3.236-.78a.942.942 0 0 0 .695-.696l.781-3.236Z"/><path fill="url(#e)" d="M207.694 46.731c.253-1.054 1.753-1.054 2.007 0l.857 3.547c.091.377.385.671.761.762l3.547.856c1.054.255 1.054 1.754 0 2.008l-3.547.856c-.376.091-.67.386-.761.762l-.857 3.547c-.254 1.054-1.754 1.054-2.007 0l-.857-3.547a1.033 1.033 0 0 0-.762-.761l-3.547-.857c-1.053-.254-1.053-1.753 0-2.008l3.547-.856c.377-.09.671-.385.762-.762l.857-3.547Z"/><path fill="url(#f)" d="M49.847 200.396a1.577 1.577 0 0 1 1.723 2.12l-2.925 7.659a1.577 1.577 0 0 1-2.698.432l-5.17-6.363a1.577 1.577 0 0 1 .975-2.552l8.095-1.296Z"/><path fill="url(#g)" d="M193.821 179.354a1.578 1.578 0 0 1 1.955-1.909l7.893 2.218c1.169.329 1.545 1.8.675 2.648l-5.867 5.726a1.578 1.578 0 0 1-2.631-.739l-2.025-7.944Z"/><path fill="url(#h)" d="m165.316 139.37-70.332-25.6c-5.392-1.962-11.353.818-13.315 6.209l-16.603 45.616c-1.962 5.391.817 11.353 6.209 13.315l70.333 25.599c5.391 1.962 11.352-.818 13.314-6.209l16.603-45.616c1.962-5.391-.818-11.352-6.209-13.314Z"/><path fill="url(#i)" d="m162.461 153.498 20.776-29.926c3.272-4.713 2.104-11.186-2.608-14.458l-29.927-20.776c-4.713-3.272-11.186-2.104-14.457 2.609l-20.777 29.926c-3.271 4.713-2.104 11.186 2.609 14.458l29.927 20.776c4.712 3.272 11.185 2.103 14.457-2.609Z"/><path fill="url(#j)" d="M138.808 129.681a3.907 3.907 0 0 1-5.465.868 3.908 3.908 0 0 1-.867-5.465 3.907 3.907 0 0 1 5.465-.867 3.907 3.907 0 0 1 .867 5.464Z"/><path fill="url(#k)" d="m150.37 113.727-2.418-1.753-11.544 15.919 2.417 1.754 11.545-15.92Z"/><path fill="url(#l)" d="M152.393 132.506a3.908 3.908 0 0 1-5.465.868 3.908 3.908 0 0 1-.867-5.465 3.907 3.907 0 0 1 5.464-.867 3.906 3.906 0 0 1 .868 5.464Z"/><path fill="url(#m)" d="m163.977 116.543-2.417-1.752-11.543 15.921 2.419 1.753 11.541-15.922Z"/><path fill="url(#n)" d="m163.947 116.584-17.531-2.482 1.54-2.131 17.528 2.49-1.537 2.123Z"/><path fill="url(#o)" d="m161.036 120.595-17.531-2.482 1.539-2.131 17.537 2.493-1.545 2.12Z"/><path fill="url(#p)" d="m147.076 87.256-6.084-28.189c-1.21-5.608-6.738-9.173-12.346-7.962l-36.86 7.956c-5.609 1.21-9.173 6.738-7.963 12.346l6.084 28.188c1.21 5.608 6.738 9.173 12.347 7.963l36.859-7.957c5.609-1.21 9.173-6.737 7.963-12.345Z"/><path fill="url(#q)" d="m146.596 84.358-20.662-16.59-7.988 15.749-8.415-4.851L97.897 94.86l-8.727 1.88.416 1.953c1.402 6.483 7.79 10.607 14.274 9.204l33.937-7.324c6.483-1.402 10.607-7.79 9.204-14.273l-.415-1.943h.01Z"/><path fill="#fff" d="M97.688 76.785a4.506 4.506 0 0 0 4.062-6.295 4.498 4.498 0 0 0-4.207-2.712 4.507 4.507 0 0 0-4.062 6.296 4.497 4.497 0 0 0 4.207 2.711Z" opacity=".9"/><path fill="url(#r)" d="M153.834 196.629c-1.437 6.044-7.822 9.483-13.659 7.358l-70.202-25.551a10.388 10.388 0 0 1-6.553-12.166l9.969-41.906c1.438-6.043 7.822-9.483 13.659-7.358l70.202 25.552a10.387 10.387 0 0 1 6.553 12.166l-9.969 41.905Z"/></g><defs><linearGradient id="b" x1="49.894" x2="208.898" y1="20.833" y2="53.932" gradientUnits="userSpaceOnUse"><stop stop-color="#A259FF"/><stop offset="1" stop-color="#3B3B3B"/></linearGradient><linearGradient id="k" x1="171.051" x2="177.564" y1="84.833" y2="91.227" gradientUnits="userSpaceOnUse"><stop stop-color="#3B3B3B"/><stop offset="1" stop-color="#A259FF"/></linearGradient><linearGradient id="e" x1="211.673" x2="225.015" y1="49.034" y2="59.514" gradientUnits="userSpaceOnUse"><stop stop-color="#A259FF"/><stop offset="1" stop-color="#377DF7"/></linearGradient><linearGradient id="f" x1="51.084" x2="50.638" y1="204.28" y2="217.555" gradientUnits="userSpaceOnUse"><stop stop-color="#A259FF"/><stop offset="1" stop-color="#377DF7"/></linearGradient><linearGradient id="g" x1="197.577" x2="210.838" y1="177.77" y2="177.009" gradientUnits="userSpaceOnUse"><stop stop-color="#A259FF"/><stop offset="1" stop-color="#377DF7"/></linearGradient><linearGradient id="h" x1="144.092" x2="182.892" y1="148.037" y2="240.768" gradientUnits="userSpaceOnUse"><stop stop-color="#A259FF"/><stop offset=".417" stop-color="#A259FF" stop-opacity="0"/></linearGradient><linearGradient id="i" x1="155.431" x2="88.777" y1="141.332" y2="161.814" gradientUnits="userSpaceOnUse"><stop stop-color="#FF7262"/><stop offset=".318" stop-color="#A259FF"/></linearGradient><linearGradient id="j" x1="144.953" x2="152.341" y1="111.553" y2="127.113" gradientUnits="userSpaceOnUse"><stop stop-color="#3B3B3B"/><stop offset="1" stop-color="#A259FF"/></linearGradient><linearGradient id="d" x1="212.862" x2="156.245" y1="137.681" y2="235.275" gradientUnits="userSpaceOnUse"><stop stop-color="#A259FF" stop-opacity="0"/><stop offset="1" stop-color="#FF6250"/></linearGradient><linearGradient id="l" x1="158.538" x2="165.925" y1="114.379" y2="129.938" gradientUnits="userSpaceOnUse"><stop stop-color="#3B3B3B"/><stop offset="1" stop-color="#A259FF"/></linearGradient><linearGradient id="m" x1="184.654" x2="191.168" y1="87.646" y2="94.039" gradientUnits="userSpaceOnUse"><stop stop-color="#3B3B3B"/><stop offset="1" stop-color="#A259FF"/></linearGradient><linearGradient id="n" x1="168.053" x2="167.786" y1="103.503" y2="121.807" gradientUnits="userSpaceOnUse"><stop stop-color="#3B3B3B"/><stop offset="1" stop-color="#A259FF"/></linearGradient><linearGradient id="o" x1="165.149" x2="164.88" y1="107.516" y2="125.821" gradientUnits="userSpaceOnUse"><stop stop-color="#3B3B3B"/><stop offset="1" stop-color="#A259FF"/></linearGradient><linearGradient id="p" x1="123.704" x2="135.466" y1="58.782" y2="97.228" gradientUnits="userSpaceOnUse"><stop stop-color="#FF7262"/><stop offset="1" stop-color="#A259FF"/></linearGradient><linearGradient id="q" x1="115.393" x2="102.616" y1="123.189" y2="75.993" gradientUnits="userSpaceOnUse"><stop stop-color="#A259FF"/><stop offset="1" stop-color="#fff"/></linearGradient><linearGradient id="r" x1="137.015" x2="88.155" y1="183.7" y2="59.385" gradientUnits="userSpaceOnUse"><stop stop-color="#A259FF"/><stop offset=".667" stop-color="#fff"/></linearGradient><clipPath id="a"><path fill="#fff" d="M0 0h250v250H0z"/></clipPath><filter id="c" width="260.174" height="260.174" x="-5.087" y="-5.087" color-interpolation-filters="sRGB" filterUnits="userSpaceOnUse"><feFlood flood-opacity="0" result="BackgroundImageFix"/><feBlend in="SourceGraphic" in2="BackgroundImageFix" result="shape"/><feGaussianBlur result="effect1_foregroundBlur_305_7501" stdDeviation="27"/></filter></defs></svg>