<svg xmlns="http://www.w3.org/2000/svg" width="250" height="250" fill="none"><g clip-path="url(#a)"><path fill="url(#b)" d="M125 229.167c57.53 0 104.167-46.637 104.167-104.167S182.53 20.833 125 20.833 20.833 67.47 20.833 125 67.47 229.167 125 229.167Z"/><g filter="url(#c)"><path fill="url(#d)" d="M125 201.087c42.022 0 76.087-34.065 76.087-76.087 0-42.022-34.065-76.087-76.087-76.087-42.022 0-76.087 34.065-76.087 76.087 0 42.022 34.065 76.087 76.087 76.087Z"/></g><path fill="#fff" fill-rule="evenodd" d="M117.841 40.38a3.156 3.156 0 1 0-.001-6.31 3.156 3.156 0 0 0 .001 6.31Zm0 2.367a5.523 5.523 0 1 0-.001-11.045 5.523 5.523 0 0 0 .001 11.045ZM42.66 185.308a3.156 3.156 0 1 0 0-6.311 3.156 3.156 0 0 0 0 6.311Zm0 2.367a5.523 5.523 0 1 0-.001-11.046 5.523 5.523 0 0 0 0 11.046ZM215.668 178.062a3.156 3.156 0 1 0 0-6.312 3.156 3.156 0 0 0 0 6.312Zm0 2.366a5.522 5.522 0 1 0 .001-11.045 5.522 5.522 0 0 0-.001 11.045Z" clip-rule="evenodd"/><path fill="#fff" d="M66.477 54.519c.232-.962 1.6-.962 1.832 0l.781 3.236a.942.942 0 0 0 .695.695l3.236.78c.962.233.962 1.6 0 1.833l-3.236.78a.942.942 0 0 0-.695.696l-.78 3.236c-.233.961-1.6.961-1.833 0l-.78-3.236a.942.942 0 0 0-.696-.695l-3.236-.781c-.961-.233-.961-1.6 0-1.832l3.236-.781a.942.942 0 0 0 .695-.695l.781-3.236Z"/><path fill="url(#e)" d="M200.449 196.188c.255-1.054 1.754-1.054 2.008 0l.856 3.547c.091.376.385.671.762.761l3.547.857c1.054.254 1.054 1.753 0 2.008l-3.547.856a1.033 1.033 0 0 0-.762.761l-.856 3.547c-.254 1.055-1.753 1.055-2.008 0l-.857-3.547a1.032 1.032 0 0 0-.76-.761l-3.548-.856c-1.054-.255-1.054-1.754 0-2.008l3.548-.857c.375-.09.67-.385.76-.761l.857-3.547Z"/><path fill="url(#f)" d="M51.658 209.454a1.577 1.577 0 0 1 1.724 2.12l-2.925 7.659a1.577 1.577 0 0 1-2.698.432l-5.17-6.362a1.578 1.578 0 0 1 .974-2.553l8.095-1.296Z"/><path fill="url(#g)" d="M205.598 62.506a1.577 1.577 0 0 1 1.955-1.909l7.894 2.218a1.578 1.578 0 0 1 .674 2.648l-5.866 5.726a1.579 1.579 0 0 1-2.632-.739l-2.025-7.944Z"/><path fill="url(#h)" d="m179.318 117.492-17.113 3.327a8.981 8.981 0 0 0 3.426 17.631l17.114-3.327a8.98 8.98 0 0 0 7.102-10.529 8.98 8.98 0 0 0-10.529-7.102Z"/><path fill="#EBEBEB" d="M186.044 126.272a4.017 4.017 0 1 0-8.028-.312 4.017 4.017 0 0 0 8.028.312Z"/><path fill="#DBDBDB" d="M182.447 128.273a2.198 2.198 0 1 0-.838-4.316 2.198 2.198 0 0 0 .838 4.316Z"/><path fill="url(#i)" d="m152.184 90.444-87.382 16.985a9.058 9.058 0 0 0-7.163 10.62l11.806 60.737a9.057 9.057 0 0 0 10.62 7.163l87.382-16.984a9.06 9.06 0 0 0 7.163-10.621l-11.807-60.737c-.953-4.91-5.708-8.118-10.619-7.163Z"/><path fill="url(#j)" d="m150.587 62.825 17.85 46.137a5.008 5.008 0 0 1-2.86 6.476l-73.173 28.309a5.008 5.008 0 0 1-6.474-2.865L68.08 94.744a4.656 4.656 0 0 1 2.665-6.023l73.816-28.556a4.656 4.656 0 0 1 6.024 2.665l.002-.005Z"/><path fill="url(#k)" d="M154.024 107.062a4.603 4.603 0 0 1-2.634 5.954 4.603 4.603 0 0 1-5.954-2.634 4.604 4.604 0 0 1 8.588-3.32Z"/><path fill="url(#l)" d="M159.311 105.013a4.606 4.606 0 0 1-2.633 5.955 4.606 4.606 0 0 1-5.956-2.634 4.605 4.605 0 0 1 8.589-3.321Z"/><path fill="url(#m)" d="m90.134 90.326-11.988 4.638a1.877 1.877 0 0 0-1.073 2.427l2.787 7.205a1.876 1.876 0 0 0 2.427 1.073l11.988-4.638a1.875 1.875 0 0 0 1.074-2.427L92.562 91.4a1.877 1.877 0 0 0-2.428-1.074Z"/><path fill="#fff" d="m144.7 75.963-7.01 2.71a3.15 3.15 0 0 1-4.07-1.802 3.151 3.151 0 0 1 1.802-4.07l7.009-2.71a3.148 3.148 0 0 1 2.269 5.872Z"/><path fill="#F8F8F8" d="m83.742 116.319-.49.619s-.04.044-.07.055a.17.17 0 0 1-.162-.024c-.078-.066-.088-.167-.023-.235l.664-.863c.056-.065.17-.079.235-.023.035.03.054.065.066.109l1.597 4.125a.161.161 0 0 1-.095.213.167.167 0 0 1-.213-.095l-1.501-3.885-.008.004ZM86.608 119.535l1.364-2.706c.16-.33.176-.689.053-1.011a1.237 1.237 0 0 0-.601-.655 1.219 1.219 0 0 0-1-.047c-.283.11-.522.311-.67.598l-.14.283c-.038.086-.144.123-.218.079-.087-.039-.123-.144-.08-.218l.139-.288a1.62 1.62 0 0 1 .851-.762 1.527 1.527 0 0 1 1.265.064c.371.183.63.486.764.832.152.397.147.858-.06 1.277l-1.168 2.32 2.127-.817a.16.16 0 0 1 .214.095.169.169 0 0 1-.095.214l-2.504.97-.025.01c-.046.018-.096.022-.134-.001-.086-.049-.123-.145-.084-.231l.002-.006ZM91.593 113.083l-.699 1.643c.305-.05.628-.021.928.113.41.182.71.516.861.908.15.392.155.841-.032 1.252-.182.41-.515.715-.905.87a1.614 1.614 0 0 1-1.244-.036.165.165 0 0 1-.086-.224c.033-.09.133-.128.225-.087.326.138.675.138.984.02a1.31 1.31 0 0 0 .721-.679c.146-.33.14-.681.022-.99a1.25 1.25 0 0 0-.68-.71 1.265 1.265 0 0 0-.985-.024.192.192 0 0 1-.154-.013l-.008.003a.168.168 0 0 1-.088-.23l.672-1.578-1.723.661a.164.164 0 0 1-.222-.092.17.17 0 0 1 .096-.223l2.103-.807a.165.165 0 0 1 .221.092c.01.024.011.053.007.079a.147.147 0 0 1-.015.062l.001-.01ZM96.635 114.91l-2.432.943-.021.008a.146.146 0 0 1-.109.004.156.156 0 0 1-.104-.209l1.349-4.241.004-.012a.157.157 0 0 1 .21-.104c.032.012.057.036.079.056.004.013.016.017.018.022l.008.021 1.19 3.079.302-.116c.091-.034.19.009.221.093a.168.168 0 0 1-.1.214l-.299.116.296.772a.17.17 0 0 1-.1.215.169.169 0 0 1-.213-.095l-.296-.772-.003.006Zm-.118-.309-1.019-2.628-1.105 3.454 2.127-.817-.003-.009ZM102.449 113.214a.164.164 0 0 1-.086-.226.172.172 0 0 1 .229-.088c.326.139.676.139.984.02.309-.118.564-.35.711-.679.147-.33.142-.678.024-.986a1.29 1.29 0 0 0-.679-.721 1.303 1.303 0 0 0-1.703.664.17.17 0 0 1-.225.086.082.082 0 0 1-.056-.036l-.004-.008s-.013-.009-.016-.017c-.013-.01-.021-.031-.027-.047-.004-.008-.005-.023-.01-.036l-.483-1.895a.15.15 0 0 1 .018-.141.157.157 0 0 1 .09-.078l2.094-.803a.165.165 0 0 1 .222.091.17.17 0 0 1-.096.224l-1.961.753.357 1.404a1.57 1.57 0 0 1 .683-.502c.393-.15.829-.16 1.246.029.418.179.707.508.861.909.147.384.163.837-.028 1.25a1.664 1.664 0 0 1-.908.861c-.393.15-.841.155-1.25-.027l.013-.001ZM105.542 108.491c.099-.665.461-1.268 1.196-1.584.081-.04.179.003.219.084a.177.177 0 0 1-.09.225c-.621.268-.891.745-.997 1.321-.053.322-.031.678.029 1.023a1.59 1.59 0 1 1 2.063 2.031 1.592 1.592 0 0 1-2.038-.858 2.591 2.591 0 0 1-.126-.292c-.225-.598-.355-1.3-.252-1.952l-.004.002Zm.685 2.096c.013.033.031.055.045.079.008.02.012.033.009.049a1.26 1.26 0 0 0 2.283-1.058 1.26 1.26 0 0 0-2.35.907l.009.025.004-.002ZM111 110.168l.136-4.584-2.174.834a.157.157 0 0 1-.21-.087.167.167 0 0 1 .095-.213l2.378-.913a.132.132 0 0 1 .096-.037.202.202 0 0 1 .12.064.164.164 0 0 1 .032.045.15.15 0 0 1 .006.093l-.14 4.807a.17.17 0 0 1-.173.162.184.184 0 0 1-.171-.17l.005-.001ZM113.782 104.174a1.006 1.006 0 0 1 1.296.57c.119.313.07.643-.092.906a1.563 1.563 0 1 1-1.113.432 1.011 1.011 0 0 1-.665-.611.996.996 0 0 1 .572-1.292l.002-.005Zm1.62 4.183c.642-.246.949-.958.706-1.592a1.229 1.229 0 0 0-1.593-.704 1.233 1.233 0 0 0-.704 1.591c.244.638.957.949 1.591.705Zm-1.013-2.616a.692.692 0 0 0 .385-.88.67.67 0 0 0-1.25.484c.133.346.52.523.868.394l-.003.002ZM121.766 101.086a1.583 1.583 0 0 1 1.982.737c.013.01.016.018.026.029.054.118.108.246.159.379.229.597.359 1.308.264 1.957-.105.653-.47 1.271-1.197 1.584l-.008.003c-.092.036-.187 0-.219-.083a.173.173 0 0 1 .09-.226c.611-.269.901-.748.997-1.321.049-.33.039-.68-.029-1.023a1.58 1.58 0 0 1-.928.926 1.59 1.59 0 0 1-2.058-.909 1.587 1.587 0 0 1 .913-2.049l.008-.004Zm1.746 1.02a1.252 1.252 0 0 0-1.626-.707 1.255 1.255 0 0 0-.721 1.613c.252.655.978.964 1.62.717a1.24 1.24 0 0 0 .722-1.622l.005-.001ZM125.268 102.316c-.232-.604-.293-1.213-.179-1.74.121-.505.407-.931.862-1.106.455-.175.957-.051 1.384.24.431.313.81.799 1.046 1.402.232.605.281 1.218.168 1.735-.12.51-.405.94-.86 1.115-.454.174-.956.051-1.386-.248-.433-.303-.804-.796-1.037-1.401l.002.003Zm.313-.119c.212.55.552.989.919 1.245.364.253.748.331 1.07.207.32-.124.544-.439.651-.872.096-.434.06-.99-.151-1.54-.211-.551-.561-.987-.923-1.245-.373-.263-.748-.33-1.07-.207-.322.124-.558.43-.651.873-.096.434-.052.986.161 1.541l-.006-.002ZM129.764 98.517l-.49.62s-.04.043-.069.055a.17.17 0 0 1-.163-.024c-.078-.066-.088-.167-.023-.235l.664-.863c.057-.065.17-.08.235-.023a.198.198 0 0 1 .066.109l1.598 4.124a.164.164 0 0 1-.096.214.167.167 0 0 1-.213-.096l-1.5-3.884-.009.003ZM132.63 101.731l1.363-2.706c.161-.33.175-.69.052-1.01a1.232 1.232 0 0 0-.6-.655 1.214 1.214 0 0 0-.999-.047 1.274 1.274 0 0 0-.672.596l-.139.284c-.039.087-.145.122-.218.079-.087-.038-.124-.144-.08-.219l.139-.287c.187-.36.496-.626.849-.767a1.53 1.53 0 0 1 1.265.065c.371.183.631.486.764.832.152.396.147.858-.061 1.277l-1.167 2.32 2.128-.817a.161.161 0 0 1 .213.095.168.168 0 0 1-.095.214l-2.503.97-.026.01c-.046.017-.097.022-.134-.001-.086-.049-.123-.145-.084-.231l.005-.002ZM141.461 93.793l-.7 1.643a1.616 1.616 0 0 1 1.79 1.02c.15.393.155.841-.032 1.252-.183.41-.515.715-.902.868a1.617 1.617 0 0 1-1.247-.033c-.086-.034-.128-.133-.086-.225a.165.165 0 0 1 .224-.087 1.308 1.308 0 0 0 1.705-.659 1.29 1.29 0 0 0-1.643-1.723.185.185 0 0 1-.153-.014l-.008.004a.167.167 0 0 1-.088-.23l.671-1.578-1.723.661a.165.165 0 0 1-.222-.092.172.172 0 0 1 .096-.224l2.102-.807a.164.164 0 0 1 .222.092c.01.025.011.054.007.079a.164.164 0 0 1-.014.063l.001-.01ZM146.503 95.62l-2.436.935-.007.007-.012.005c-.034.013-.072.024-.109.004a.157.157 0 0 1-.104-.21l1.349-4.24.004-.012c.032-.094.116-.135.21-.104.032.011.057.036.078.056.005.012.013.019.019.021l.008.021 1.191 3.08.301-.115c.091-.035.19.008.221.091a.169.169 0 0 1-.099.216l-.3.115.296.772a.169.169 0 0 1-.099.214.167.167 0 0 1-.214-.095l-.296-.772-.001.01Zm-.119-.309-1.018-2.629-1.106 3.454 2.128-.816-.004-.008ZM148.47 95.41a.163.163 0 0 1-.086-.226.175.175 0 0 1 .229-.088c.326.138.675.138.984.02a1.27 1.27 0 0 0 .711-.68c.147-.33.142-.677.024-.986a1.293 1.293 0 0 0-.679-.72 1.28 1.28 0 0 0-.984-.02c-.313.12-.572.354-.719.683-.039.087-.141.13-.225.086a.087.087 0 0 1-.057-.035l-.003-.008s-.013-.01-.016-.019c-.014-.008-.021-.03-.028-.046-.003-.009-.004-.022-.009-.035l-.483-1.896a.15.15 0 0 1 .018-.141.152.152 0 0 1 .089-.077l2.094-.804c.09-.04.188.004.222.092a.168.168 0 0 1-.096.223l-1.961.752.357 1.404c.179-.22.412-.397.684-.5.392-.152.828-.16 1.246.029.418.179.707.508.861.908.147.384.163.837-.028 1.25a1.664 1.664 0 0 1-.908.861c-.393.15-.841.155-1.25-.027h.013ZM151.562 90.687c.1-.666.46-1.273 1.197-1.585.081-.04.178.004.218.084a.176.176 0 0 1-.089.226c-.619.271-.893.744-.997 1.32-.053.322-.031.677.029 1.023a1.59 1.59 0 1 1 2.063 2.032 1.592 1.592 0 0 1-2.038-.86c-.05-.09-.086-.186-.126-.29-.226-.599-.356-1.3-.252-1.952l-.005.002Zm.686 2.096c.013.033.031.055.045.079.008.02.012.033.009.048a1.261 1.261 0 0 0 2.283-1.058 1.261 1.261 0 0 0-1.633-.713 1.259 1.259 0 0 0-.718 1.62l.01.025.004-.001Z"/><path fill="url(#n)" d="m128.036 112.685-39.182 15.158.745 1.925 39.182-15.158-.745-1.925Z"/><path fill="url(#o)" d="m118.249 121.39-27.74 10.732.745 1.926 27.74-10.732-.745-1.926Z"/><path fill="#3B3B3B" d="m128.828 75.352-17.614 6.815a1.033 1.033 0 0 0 .744 1.925l17.614-6.814a1.031 1.031 0 1 0-.744-1.926Z"/><path fill="url(#p)" d="M161.106 124.534 69.301 142.38l7.144 36.754 91.806-17.845-7.145-36.755Z"/><path fill="#000" d="M161.106 124.534 69.301 142.38l7.144 36.754 91.806-17.845-7.145-36.755Z" opacity=".2"/><path fill="url(#q)" d="m169.586 183.286-90.45 4.577a9.057 9.057 0 0 1-9.349-7.318l-13.02-66.984c-.308-1.58 1.317-2.836 2.77-2.142a10.524 10.524 0 0 0 5.426.989l81.253-6.95a9.057 9.057 0 0 1 9.664 7.296l13.71 70.527-.004.005Z"/><path fill="#EBEBEB" d="M150.374 150.298c2.105-.409 3.434-2.685 2.967-5.082-.465-2.398-2.549-4.01-4.654-3.602-2.105.409-3.434 2.685-2.968 5.083.467 2.398 2.551 4.01 4.655 3.601Z"/><path fill="#DBDBDB" d="M151.303 145.612c.216 1.114-.402 2.172-1.38 2.362-.978.19-1.947-.559-2.164-1.673-.216-1.114.401-2.172 1.38-2.362.978-.19 1.947.559 2.164 1.673Z"/></g><defs><linearGradient id="b" x1="49.894" x2="208.898" y1="20.833" y2="53.932" gradientUnits="userSpaceOnUse"><stop stop-color="#A259FF"/><stop offset="1" stop-color="#3B3B3B"/></linearGradient><linearGradient id="j" x1="79.725" x2="164.798" y1="85.053" y2="77.705" gradientUnits="userSpaceOnUse"><stop stop-color="#A259FF"/><stop offset="1" stop-color="#FF6250"/></linearGradient><linearGradient id="e" x1="204.428" x2="217.771" y1="198.491" y2="208.97" gradientUnits="userSpaceOnUse"><stop stop-color="#A259FF"/><stop offset="1" stop-color="#377DF7"/></linearGradient><linearGradient id="f" x1="52.895" x2="52.45" y1="213.338" y2="226.613" gradientUnits="userSpaceOnUse"><stop stop-color="#A259FF"/><stop offset="1" stop-color="#377DF7"/></linearGradient><linearGradient id="g" x1="209.354" x2="222.615" y1="60.922" y2="60.161" gradientUnits="userSpaceOnUse"><stop stop-color="#A259FF"/><stop offset="1" stop-color="#377DF7"/></linearGradient><linearGradient id="h" x1="159.014" x2="191.714" y1="121.438" y2="127.092" gradientUnits="userSpaceOnUse"><stop stop-color="#A259FF"/><stop offset="1" stop-color="#3B3B3B"/></linearGradient><linearGradient id="i" x1="137.498" x2="102.173" y1="203.71" y2="134.34" gradientUnits="userSpaceOnUse"><stop stop-color="#A259FF"/><stop offset="1" stop-color="#3B3B3B"/></linearGradient><linearGradient id="d" x1="73.551" x2="220.705" y1="48.913" y2="77.293" gradientUnits="userSpaceOnUse"><stop stop-color="#A259FF" stop-opacity="0"/><stop offset="1" stop-color="#FF6250"/></linearGradient><linearGradient id="k" x1="145.173" x2="154.102" y1="105.54" y2="103.952" gradientUnits="userSpaceOnUse"><stop stop-color="#A259FF"/><stop offset="1" stop-color="#FF6250"/></linearGradient><linearGradient id="l" x1="150.46" x2="159.389" y1="103.491" y2="101.903" gradientUnits="userSpaceOnUse"><stop stop-color="#A259FF"/><stop offset="1" stop-color="#3B3B3B"/></linearGradient><linearGradient id="m" x1="78.903" x2="94.872" y1="94.671" y2="93.117" gradientUnits="userSpaceOnUse"><stop stop-color="#A259FF"/><stop offset="1" stop-color="#3B3B3B"/></linearGradient><linearGradient id="n" x1="95.197" x2="101.23" y1="125.389" y2="133.864" gradientUnits="userSpaceOnUse"><stop stop-color="#A259FF"/><stop offset="1" stop-color="#FF6250"/></linearGradient><linearGradient id="o" x1="95" x2="101.62" y1="130.385" y2="138.015" gradientUnits="userSpaceOnUse"><stop stop-color="#A259FF"/><stop offset="1" stop-color="#FF6250"/></linearGradient><linearGradient id="p" x1="84.165" x2="165.898" y1="139.491" y2="160.966" gradientUnits="userSpaceOnUse"><stop stop-color="#A259FF"/><stop offset="1" stop-color="#3B3B3B"/></linearGradient><linearGradient id="q" x1="145.195" x2="3.606" y1="160.975" y2="93.022" gradientUnits="userSpaceOnUse"><stop stop-color="#A259FF"/><stop offset=".667" stop-color="#fff"/></linearGradient><clipPath id="a"><path fill="#fff" d="M0 0h250v250H0z"/></clipPath><filter id="c" width="260.174" height="260.174" x="-5.087" y="-5.087" color-interpolation-filters="sRGB" filterUnits="userSpaceOnUse"><feFlood flood-opacity="0" result="BackgroundImageFix"/><feBlend in="SourceGraphic" in2="BackgroundImageFix" result="shape"/><feGaussianBlur result="effect1_foregroundBlur_305_7453" stdDeviation="27"/></filter></defs></svg>